<?xml version="1.0" encoding="utf-8" ?>
<svg baseProfile="tiny" height="887" version="1.2" width="1774" xmlns="http://www.w3.org/2000/svg" xmlns:ev="http://www.w3.org/2001/xml-events" xmlns:xlink="http://www.w3.org/1999/xlink"><defs /><rect fill="black" height="887" width="1774" x="0" y="0" /><path d="M 1034 230 L 1033 233 L 1048 249 L 1063 275 L 1070 294 L 1075 318 L 1075 580 L 1079 595 L 1084 604 L 1093 614 L 1108 623 L 1118 626 L 1137 626 L 1159 615 L 1166 608 L 1175 593 L 1178 581 L 1178 564 L 1172 547 L 1155 529 L 1130 520 L 1130 311 L 1132 302 L 1166 302 L 1185 305 L 1206 314 L 1218 328 L 1224 348 L 1222 365 L 1214 382 L 1196 405 L 1168 428 L 1141 444 L 1165 456 L 1188 478 L 1204 506 L 1219 549 L 1230 572 L 1240 588 L 1259 611 L 1282 631 L 1313 650 L 1336 659 L 1355 663 L 1325 630 L 1305 600 L 1291 570 L 1270 503 L 1257 477 L 1237 455 L 1215 442 L 1250 418 L 1268 399 L 1279 380 L 1285 355 L 1285 335 L 1280 315 L 1271 299 L 1251 278 L 1217 261 L 1177 254 L 1111 253 L 1096 246 L 1085 232 L 1079 247 L 1076 249 L 1038 230 Z" fill="#D4AF37" stroke="#F5D76E" stroke-width="1" /><path d="M 908 227 L 903 235 L 887 250 L 847 274 L 824 291 L 807 309 L 793 334 L 786 364 L 786 552 L 784 566 L 778 588 L 766 611 L 757 623 L 745 635 L 735 641 L 734 644 L 766 636 L 787 625 L 811 607 L 839 575 L 884 508 L 905 482 L 939 446 L 951 427 L 955 411 L 954 398 L 949 385 L 937 371 L 922 363 L 911 361 L 898 362 L 882 369 L 870 381 L 864 392 L 862 415 L 864 424 L 871 436 L 888 450 L 863 471 L 850 486 L 841 501 L 839 497 L 839 387 L 843 367 L 857 340 L 907 290 L 958 339 L 968 355 L 974 372 L 976 387 L 974 517 L 968 531 L 960 539 L 945 546 L 957 554 L 973 570 L 998 602 L 1016 619 L 1043 635 L 1077 644 L 1058 627 L 1048 613 L 1039 595 L 1034 578 L 1031 557 L 1032 374 L 1029 352 L 1023 333 L 1008 307 L 994 292 L 970 274 L 927 248 L 913 235 Z" fill="#D4AF37" stroke="#F5D76E" stroke-width="1" /><path d="M 491 226 L 482 239 L 472 248 L 451 256 L 427 257 L 357 250 L 334 254 L 318 260 L 303 269 L 286 284 L 275 299 L 266 319 L 263 335 L 265 357 L 273 373 L 282 382 L 285 381 L 286 384 L 284 384 L 288 387 L 266 413 L 254 436 L 253 443 L 270 426 L 286 416 L 318 407 L 385 446 L 412 467 L 428 487 L 436 509 L 437 525 L 432 548 L 423 566 L 412 579 L 412 555 L 404 534 L 389 517 L 374 508 L 359 504 L 341 504 L 329 507 L 311 517 L 299 529 L 293 539 L 288 554 L 287 569 L 291 588 L 301 605 L 312 615 L 324 622 L 338 626 L 361 627 L 348 660 L 339 716 L 342 714 L 356 687 L 372 666 L 403 636 L 462 588 L 484 564 L 492 552 L 504 524 L 507 507 L 507 489 L 504 473 L 495 452 L 480 433 L 467 421 L 426 395 L 348 356 L 331 345 L 324 337 L 334 319 L 352 308 L 368 303 L 390 302 L 426 310 L 449 323 L 462 316 L 477 301 L 488 277 L 492 252 Z" fill="#D4AF37" stroke="#F5D76E" stroke-width="1" /><path d="M 1548 224 L 1530 246 L 1509 255 L 1476 257 L 1442 253 L 1409 253 L 1375 262 L 1356 274 L 1339 291 L 1327 312 L 1321 330 L 1320 358 L 1324 372 L 1331 385 L 1341 396 L 1353 404 L 1397 423 L 1356 452 L 1332 480 L 1324 497 L 1320 514 L 1320 532 L 1323 547 L 1330 564 L 1346 587 L 1398 632 L 1426 661 L 1444 688 L 1455 715 L 1457 715 L 1452 670 L 1437 626 L 1470 624 L 1484 618 L 1497 608 L 1506 596 L 1512 581 L 1514 561 L 1510 543 L 1500 526 L 1482 511 L 1461 504 L 1438 505 L 1419 513 L 1406 524 L 1398 535 L 1391 557 L 1391 580 L 1382 568 L 1376 554 L 1374 542 L 1375 527 L 1384 503 L 1393 490 L 1410 473 L 1516 401 L 1469 394 L 1420 378 L 1392 362 L 1384 354 L 1382 342 L 1386 331 L 1398 317 L 1411 309 L 1426 304 L 1440 302 L 1466 304 L 1493 313 L 1504 320 L 1511 317 L 1532 297 L 1542 278 L 1547 257 Z" fill="#D4AF37" stroke="#F5D76E" stroke-width="1" /><path d="M 775 222 L 766 238 L 756 246 L 742 252 L 725 255 L 691 255 L 650 251 L 562 254 L 532 250 L 529 274 L 503 351 L 504 354 L 521 336 L 533 327 L 563 315 L 585 312 L 606 314 L 613 320 L 616 329 L 617 561 L 608 624 L 598 665 L 602 667 L 621 631 L 646 596 L 672 569 L 689 555 L 705 546 L 689 539 L 682 532 L 676 522 L 673 511 L 672 334 L 675 321 L 685 313 L 720 313 L 751 321 L 762 329 L 786 270 L 798 249 Z" fill="#D4AF37" stroke="#F5D76E" stroke-width="1" /></svg>